<svg width="545" height="196" viewBox="0 0 545 196" fill="none" xmlns="http://www.w3.org/2000/svg">
<path d="M240.616 114.348V89.6357H249.399V107.888H257.804V89.6357H266.588V114.348H240.616ZM261.893 119.185V112.548L263.748 114.348H257.804V107.888H270.071V119.185H261.893Z" fill="#C9A263"/>
<path d="M281.256 98.8146H293.068V104.816H281.256V98.8146ZM281.861 108.064H295.112V114.348H273.078V89.6357H294.62V95.9197H281.861V108.064Z" fill="#C9A263"/>
<path d="M315.925 89.6357H324.86V114.348H315.925V89.6357ZM307.672 114.348H298.737V89.6357H307.672V114.348ZM316.531 105.24H307.066V98.391H316.531V105.24Z" fill="#C9A263"/>
<path d="M335.592 114.348V94.2958L337.523 96.0963H327.831V89.6357H352.137V96.0963H342.445L344.375 94.2958V114.348H335.592Z" fill="#C9A263"/>
<path d="M355.083 114.348V89.6357H367.842C370.316 89.6357 372.448 90.0122 374.24 90.7654C376.058 91.5185 377.459 92.6012 378.443 94.0133C379.427 95.4019 379.919 97.0495 379.919 98.9559C379.919 100.862 379.427 102.51 378.443 103.898C377.459 105.287 376.058 106.37 374.24 107.146C372.448 107.899 370.316 108.276 367.842 108.276H360.043L364.018 104.71V114.348H355.083ZM364.018 105.628L360.043 101.851H367.274C368.511 101.851 369.42 101.592 370 101.074C370.606 100.556 370.909 99.8502 370.909 98.9559C370.909 98.0615 370.606 97.3554 370 96.8376C369.42 96.3198 368.511 96.0609 367.274 96.0609H360.043L364.018 92.2834V105.628Z" fill="#C9A263"/>
<path d="M198.402 155.974V128.261H223.81V155.974H215.103V133.527L217.017 135.506H205.195L207.109 133.527V155.974H198.402Z" fill="white"/>
<path d="M228.455 155.974V128.261H241.102C243.554 128.261 245.668 128.683 247.445 129.528C249.246 130.372 250.635 131.587 251.61 133.17C252.586 134.727 253.074 136.575 253.074 138.713C253.074 140.851 252.586 142.698 251.61 144.256C250.635 145.813 249.246 147.027 247.445 147.898C245.668 148.742 243.554 149.165 241.102 149.165H233.371L237.312 145.166V155.974H228.455ZM237.312 146.195L233.371 141.959H240.539C241.765 141.959 242.666 141.669 243.241 141.088C243.842 140.508 244.142 139.716 244.142 138.713C244.142 137.71 243.842 136.918 243.241 136.337C242.666 135.757 241.765 135.466 240.539 135.466H233.371L237.312 131.23V146.195Z" fill="white"/>
<path d="M269.486 156.608C267.359 156.608 265.383 156.251 263.556 155.539C261.755 154.826 260.191 153.823 258.865 152.53C257.539 151.21 256.501 149.666 255.75 147.898C255.025 146.129 254.662 144.203 254.662 142.118C254.662 140.006 255.025 138.079 255.75 136.337C256.501 134.569 257.539 133.038 258.865 131.745C260.191 130.425 261.755 129.409 263.556 128.697C265.383 127.984 267.359 127.628 269.486 127.628C271.637 127.628 273.614 127.984 275.415 128.697C277.217 129.409 278.78 130.425 280.106 131.745C281.433 133.038 282.458 134.569 283.184 136.337C283.934 138.079 284.31 140.006 284.31 142.118C284.31 144.203 283.934 146.129 283.184 147.898C282.458 149.666 281.433 151.21 280.106 152.53C278.78 153.823 277.217 154.826 275.415 155.539C273.614 156.251 271.637 156.608 269.486 156.608ZM269.486 149.046C270.311 149.046 271.074 148.888 271.775 148.571C272.501 148.254 273.126 147.805 273.651 147.225C274.202 146.618 274.627 145.892 274.927 145.047C275.228 144.176 275.378 143.2 275.378 142.118C275.378 141.036 275.228 140.072 274.927 139.228C274.627 138.357 274.202 137.631 273.651 137.05C273.126 136.443 272.501 135.981 271.775 135.664C271.074 135.348 270.311 135.189 269.486 135.189C268.66 135.189 267.884 135.348 267.159 135.664C266.458 135.981 265.833 136.443 265.282 137.05C264.757 137.631 264.344 138.357 264.044 139.228C263.744 140.072 263.594 141.036 263.594 142.118C263.594 143.2 263.744 144.176 264.044 145.047C264.344 145.892 264.757 146.618 265.282 147.225C265.833 147.805 266.458 148.254 267.159 148.571C267.884 148.888 268.66 149.046 269.486 149.046Z" fill="white"/>
<path d="M287.497 155.974V128.261H296.204V142.672L305.249 128.261H313.58V155.974H304.873V141.603L295.866 155.974H287.497Z" fill="white"/>
<path d="M316.407 154.153L318.997 147.7C320.098 148.175 321.224 148.544 322.375 148.808C323.55 149.072 324.676 149.244 325.752 149.323C326.828 149.376 327.779 149.323 328.604 149.165C329.455 149.006 330.131 148.742 330.631 148.373C331.131 148.003 331.381 147.515 331.381 146.908C331.381 146.275 331.131 145.839 330.631 145.602C330.131 145.364 329.518 145.245 328.792 145.245H321.699V138.515H328.041C328.792 138.515 329.355 138.37 329.73 138.079C330.131 137.763 330.331 137.354 330.331 136.852C330.331 136.298 330.105 135.862 329.655 135.546C329.23 135.229 328.642 135.018 327.891 134.912C327.166 134.78 326.34 134.767 325.414 134.873C324.489 134.952 323.525 135.15 322.525 135.466C321.549 135.757 320.598 136.14 319.672 136.615L317.083 129.805C318.934 128.908 320.873 128.301 322.9 127.984C324.952 127.641 326.941 127.575 328.867 127.786C330.819 127.971 332.57 128.406 334.121 129.092C335.697 129.779 336.948 130.689 337.874 131.824C338.8 132.933 339.263 134.252 339.263 135.783C339.263 137.103 338.925 138.291 338.249 139.346C337.574 140.376 336.648 141.181 335.472 141.761C334.321 142.342 333.008 142.632 331.532 142.632L331.719 140.772C333.446 140.772 334.947 141.101 336.223 141.761C337.524 142.395 338.525 143.266 339.225 144.374C339.951 145.483 340.313 146.75 340.313 148.175C340.313 149.495 339.976 150.682 339.3 151.738C338.625 152.767 337.686 153.652 336.485 154.391C335.31 155.103 333.933 155.644 332.357 156.014C330.806 156.383 329.13 156.568 327.328 156.568C325.552 156.595 323.726 156.397 321.849 155.974C319.998 155.578 318.184 154.971 316.407 154.153Z" fill="white"/>
<path d="M343.461 155.974V128.261H356.784C360.037 128.261 362.551 128.894 364.327 130.161C366.129 131.428 367.029 133.21 367.029 135.506C367.029 137.75 366.204 139.531 364.553 140.851C362.901 142.144 360.675 142.791 357.872 142.791L358.623 140.653C361.6 140.653 363.94 141.273 365.641 142.514C367.342 143.754 368.193 145.562 368.193 147.937C368.193 150.392 367.267 152.345 365.416 153.797C363.564 155.248 360.925 155.974 357.497 155.974H343.461ZM352.168 149.442H357.084C357.81 149.442 358.348 149.257 358.698 148.888C359.073 148.492 359.261 147.937 359.261 147.225C359.261 146.512 359.073 145.984 358.698 145.641C358.348 145.272 357.81 145.087 357.084 145.087H352.168V149.442ZM352.168 138.911H355.921C356.671 138.911 357.222 138.739 357.572 138.396C357.922 138.053 358.098 137.552 358.098 136.892C358.098 136.205 357.922 135.691 357.572 135.348C357.222 134.978 356.671 134.793 355.921 134.793H352.168V138.911Z" fill="white"/>
<path d="M384.712 156.608C382.585 156.608 380.609 156.251 378.782 155.539C376.981 154.826 375.417 153.823 374.091 152.53C372.765 151.21 371.727 149.666 370.976 147.898C370.251 146.129 369.888 144.203 369.888 142.118C369.888 140.006 370.251 138.079 370.976 136.337C371.727 134.569 372.765 133.038 374.091 131.745C375.417 130.425 376.981 129.409 378.782 128.697C380.609 127.984 382.585 127.628 384.712 127.628C386.864 127.628 388.84 127.984 390.641 128.697C392.443 129.409 394.007 130.425 395.333 131.745C396.659 133.038 397.684 134.569 398.41 136.337C399.161 138.079 399.536 140.006 399.536 142.118C399.536 144.203 399.161 146.129 398.41 147.898C397.684 149.666 396.659 151.21 395.333 152.53C394.007 153.823 392.443 154.826 390.641 155.539C388.84 156.251 386.864 156.608 384.712 156.608ZM384.712 149.046C385.537 149.046 386.301 148.888 387.001 148.571C387.727 148.254 388.352 147.805 388.878 147.225C389.428 146.618 389.853 145.892 390.154 145.047C390.454 144.176 390.604 143.2 390.604 142.118C390.604 141.036 390.454 140.072 390.154 139.228C389.853 138.357 389.428 137.631 388.878 137.05C388.352 136.443 387.727 135.981 387.001 135.664C386.301 135.348 385.537 135.189 384.712 135.189C383.886 135.189 383.111 135.348 382.385 135.664C381.684 135.981 381.059 136.443 380.509 137.05C379.983 137.631 379.57 138.357 379.27 139.228C378.97 140.072 378.82 141.036 378.82 142.118C378.82 143.2 378.97 144.176 379.27 145.047C379.57 145.892 379.983 146.618 380.509 147.225C381.059 147.805 381.684 148.254 382.385 148.571C383.111 148.888 383.886 149.046 384.712 149.046Z" fill="white"/>
<path d="M419.291 152.015V135.506H413.249L413.174 137.486C413.124 138.937 413.037 140.296 412.911 141.563C412.786 142.83 412.611 143.992 412.386 145.047C412.186 146.103 411.923 147.04 411.598 147.858C411.273 148.65 410.872 149.31 410.397 149.838L401.052 148.729C401.878 148.729 402.553 148.439 403.079 147.858C403.629 147.251 404.067 146.42 404.392 145.364C404.718 144.282 404.955 143.015 405.105 141.563C405.281 140.085 405.406 138.462 405.481 136.694L405.781 128.261H427.998V152.015H419.291ZM400.302 161.398V148.729H431.451V161.398H423.345V155.974H408.408V161.398H400.302Z" fill="white"/>
<path d="M447.636 156.608C445.534 156.608 443.582 156.265 441.781 155.578C440.005 154.866 438.453 153.863 437.127 152.57C435.826 151.276 434.813 149.745 434.088 147.977C433.362 146.209 432.999 144.256 432.999 142.118C432.999 139.98 433.362 138.027 434.088 136.258C434.813 134.49 435.826 132.959 437.127 131.666C438.453 130.373 440.005 129.383 441.781 128.697C443.582 127.984 445.534 127.628 447.636 127.628C450.213 127.628 452.489 128.103 454.466 129.053C456.467 130.003 458.119 131.375 459.42 133.17L453.828 138.436C453.052 137.406 452.189 136.615 451.238 136.06C450.313 135.48 449.262 135.189 448.086 135.189C447.16 135.189 446.322 135.348 445.571 135.664C444.821 135.981 444.17 136.443 443.62 137.05C443.095 137.657 442.682 138.396 442.381 139.267C442.081 140.112 441.931 141.062 441.931 142.118C441.931 143.173 442.081 144.137 442.381 145.008C442.682 145.852 443.095 146.578 443.62 147.185C444.17 147.792 444.821 148.254 445.571 148.571C446.322 148.888 447.16 149.046 448.086 149.046C449.262 149.046 450.313 148.769 451.238 148.215C452.189 147.634 453.052 146.829 453.828 145.8L459.42 151.065C458.119 152.833 456.467 154.206 454.466 155.182C452.489 156.133 450.213 156.608 447.636 156.608Z" fill="white"/>
<path d="M467.88 155.974V133.487L469.794 135.506H460.186V128.261H484.28V135.506H474.672L476.586 133.487V155.974H467.88Z" fill="white"/>
<path d="M487.201 155.974V128.261H500.523C503.776 128.261 506.29 128.894 508.067 130.161C509.868 131.428 510.769 133.21 510.769 135.506C510.769 137.75 509.943 139.531 508.292 140.851C506.641 142.144 504.414 142.791 501.612 142.791L502.362 140.653C505.34 140.653 507.679 141.273 509.38 142.514C511.082 143.754 511.932 145.562 511.932 147.937C511.932 150.392 511.007 152.345 509.155 153.797C507.304 155.248 504.664 155.974 501.237 155.974H487.201ZM495.907 149.442H500.824C501.549 149.442 502.087 149.257 502.437 148.888C502.813 148.492 503 147.937 503 147.225C503 146.512 502.813 145.984 502.437 145.641C502.087 145.272 501.549 145.087 500.824 145.087H495.907V149.442ZM495.907 138.911H499.66C500.411 138.911 500.961 138.739 501.312 138.396C501.662 138.053 501.837 137.552 501.837 136.892C501.837 136.205 501.662 135.691 501.312 135.348C500.961 134.978 500.411 134.793 499.66 134.793H495.907V138.911Z" fill="white"/>
<path d="M512.877 155.974L524.361 128.261H533.067L544.551 155.974H535.394L526.913 132.695H530.365L521.884 155.974H512.877ZM519.707 151.144L521.959 144.414H534.043L536.295 151.144H519.707Z" fill="white"/>
<path d="M113.976 30.537L0 195.169H15.7287L125.483 38.9797L113.976 30.537Z" fill="#C9A263"/>
<path d="M171.918 157.177H87.4913L150.875 68.3711L163.095 85.9147L126.556 137.698H171.918L209.91 85.4143L150.811 0.987732L15.7288 195.169H201.467L171.918 157.177Z" fill="white"/>
<path d="M219.509 85.4143L164.632 5.20911H162.817H161.365H159.55L197.872 62.8004L214.428 85.4143H216.242H217.694H219.509Z" fill="#C9A263"/>
<path d="M227.728 185.377V179.495H239.475V185.377H227.728ZM231.293 169.841C233.37 169.841 235.259 170.152 236.96 170.775C238.687 171.375 240.175 172.24 241.426 173.37C242.677 174.5 243.641 175.838 244.316 177.384C245.017 178.929 245.367 180.636 245.367 182.505C245.367 184.373 245.017 186.08 244.316 187.626C243.641 189.171 242.677 190.509 241.426 191.639C240.175 192.77 238.687 193.646 236.96 194.269C235.259 194.869 233.37 195.169 231.293 195.169C228.716 195.169 226.427 194.754 224.425 193.923C222.449 193.07 220.81 191.87 219.509 190.325L225.101 185.723C225.877 186.622 226.727 187.326 227.653 187.833C228.604 188.318 229.667 188.56 230.843 188.56C231.719 188.56 232.494 188.422 233.17 188.145C233.87 187.868 234.458 187.464 234.934 186.934C235.434 186.403 235.809 185.769 236.06 185.031C236.31 184.269 236.435 183.428 236.435 182.505C236.435 181.582 236.31 180.752 236.06 180.014C235.809 179.252 235.434 178.606 234.934 178.076C234.458 177.545 233.87 177.142 233.17 176.865C232.494 176.588 231.719 176.45 230.843 176.45C229.667 176.45 228.604 176.703 227.653 177.211C226.727 177.695 225.877 178.387 225.101 179.287L219.509 174.685C220.81 173.116 222.449 171.917 224.425 171.086C226.427 170.256 228.716 169.841 231.293 169.841Z" fill="white"/>
<path d="M264.757 194.615L258.227 183.266L265.282 179.46L274.74 194.615H264.757ZM248.394 194.615V170.394H257.251V194.615H248.394ZM254.699 185.861V179.425H264.644V185.861H254.699ZM266.146 183.37L258.002 182.609L265.545 170.394H274.777L266.146 183.37Z" fill="white"/>
<path d="M289.574 195.169C287.472 195.169 285.521 194.869 283.719 194.269C281.943 193.646 280.392 192.77 279.066 191.639C277.764 190.509 276.751 189.171 276.026 187.626C275.3 186.08 274.937 184.373 274.937 182.505C274.937 180.636 275.3 178.929 276.026 177.384C276.751 175.838 277.764 174.5 279.066 173.37C280.392 172.24 281.943 171.375 283.719 170.775C285.521 170.152 287.472 169.841 289.574 169.841C292.151 169.841 294.428 170.256 296.404 171.086C298.406 171.917 300.057 173.116 301.358 174.685L295.766 179.287C294.991 178.387 294.127 177.695 293.177 177.211C292.251 176.703 291.2 176.45 290.024 176.45C289.098 176.45 288.26 176.588 287.51 176.865C286.759 177.142 286.109 177.545 285.558 178.076C285.033 178.606 284.62 179.252 284.32 180.014C284.019 180.752 283.869 181.582 283.869 182.505C283.869 183.428 284.019 184.269 284.32 185.031C284.62 185.769 285.033 186.403 285.558 186.934C286.109 187.464 286.759 187.868 287.51 188.145C288.26 188.422 289.098 188.56 290.024 188.56C291.2 188.56 292.251 188.318 293.177 187.833C294.127 187.326 294.991 186.622 295.766 185.723L301.358 190.325C300.057 191.87 298.406 193.07 296.404 193.923C294.428 194.754 292.151 195.169 289.574 195.169Z" fill="white"/>
<path d="M304.034 194.615V170.394H329.442V194.615H320.735V174.996L322.649 176.726H310.827L312.741 174.996V194.615H304.034Z" fill="white"/>
<path d="M342.194 179.391H353.903V185.273H342.194V179.391ZM342.794 188.456H355.93V194.615H334.087V170.394H355.442V176.553H342.794V188.456Z" fill="white"/>
<path d="M359.523 194.615V170.394H372.17C374.622 170.394 376.736 170.764 378.513 171.502C380.314 172.24 381.703 173.301 382.678 174.685C383.654 176.046 384.142 177.661 384.142 179.529C384.142 181.398 383.654 183.012 382.678 184.373C381.703 185.734 380.314 186.795 378.513 187.557C376.736 188.295 374.622 188.664 372.17 188.664H364.439L368.38 185.169V194.615H359.523ZM368.38 186.069L364.439 182.366H371.607C372.833 182.366 373.734 182.113 374.309 181.605C374.91 181.098 375.21 180.406 375.21 179.529C375.21 178.653 374.91 177.961 374.309 177.453C373.734 176.946 372.833 176.692 371.607 176.692H364.439L368.38 172.99V186.069Z" fill="white"/>
<path d="M392.208 194.615V174.962L394.122 176.726H384.514V170.394H408.608V176.726H399.001L400.915 174.962V194.615H392.208Z" fill="white"/>
<path d="M411.529 194.615V170.394H420.236V182.989L429.281 170.394H437.612V194.615H428.905V182.055L419.898 194.615H411.529Z" fill="white"/>
<path d="M440.44 193.024L443.029 187.384C444.13 187.799 445.256 188.122 446.407 188.352C447.583 188.583 448.709 188.733 449.785 188.802C450.86 188.848 451.811 188.802 452.637 188.664C453.487 188.525 454.163 188.295 454.663 187.972C455.164 187.649 455.414 187.222 455.414 186.692C455.414 186.138 455.164 185.757 454.663 185.55C454.163 185.342 453.55 185.238 452.824 185.238H445.731V179.356H452.074C452.824 179.356 453.387 179.229 453.763 178.975C454.163 178.699 454.363 178.341 454.363 177.903C454.363 177.418 454.138 177.038 453.688 176.761C453.262 176.484 452.674 176.3 451.924 176.207C451.198 176.092 450.372 176.081 449.447 176.173C448.521 176.242 447.558 176.415 446.557 176.692C445.581 176.946 444.63 177.28 443.705 177.695L441.115 171.744C442.967 170.96 444.906 170.429 446.932 170.152C448.984 169.852 450.973 169.795 452.899 169.979C454.851 170.141 456.602 170.521 458.154 171.121C459.73 171.721 460.981 172.517 461.907 173.509C462.832 174.477 463.295 175.631 463.295 176.969C463.295 178.122 462.957 179.16 462.282 180.083C461.606 180.982 460.681 181.686 459.505 182.193C458.354 182.701 457.04 182.955 455.564 182.955L455.752 181.328C457.478 181.328 458.979 181.617 460.255 182.193C461.556 182.747 462.557 183.508 463.258 184.477C463.983 185.446 464.346 186.553 464.346 187.799C464.346 188.952 464.008 189.99 463.333 190.913C462.657 191.812 461.719 192.585 460.518 193.231C459.342 193.854 457.966 194.327 456.39 194.65C454.839 194.973 453.162 195.134 451.361 195.134C449.584 195.157 447.758 194.984 445.881 194.615C444.03 194.269 442.216 193.739 440.44 193.024Z" fill="white"/>
</svg>
